<svg width="32" height="32" viewBox="0 0 32 32" fill="none" xmlns="http://www.w3.org/2000/svg">
<rect width="32" height="32" rx="16" fill="black" fill-opacity="0.15"/>
<path fill-rule="evenodd" clip-rule="evenodd" d="M11.4716 18.2643C10.8463 18.8895 10.8463 19.9033 11.4716 20.5285C12.0968 21.1538 13.1105 21.1538 13.7358 20.5285L16 18.2643L18.2642 20.5285C18.8895 21.1538 19.9032 21.1538 20.5285 20.5285C21.1537 19.9033 21.1537 18.8895 20.5285 18.2643L18.2642 16.0001L20.5285 13.7358C21.1537 13.1106 21.1537 12.0969 20.5285 11.4716C19.9032 10.8464 18.8895 10.8464 18.2642 11.4716L16 13.7358L13.7358 11.4716C13.1105 10.8464 12.0968 10.8464 11.4716 11.4716C10.8463 12.0969 10.8463 13.1106 11.4716 13.7358L13.7358 16.0001L11.4716 18.2643Z" fill="white"/>
</svg>
