<svg width="52" height="52" viewBox="0 0 52 52" fill="none" xmlns="http://www.w3.org/2000/svg">
<circle cx="26" cy="26" r="26" transform="rotate(180 26 26)" fill="#0FBD8C" fill-opacity="0.25"/>
<circle cx="26" cy="26" r="22" transform="rotate(180 26 26)" fill="#0FBD8C"/>
<path fill-rule="evenodd" clip-rule="evenodd" d="M36.4651 24.6522L29.4961 17.548C28.9235 16.9982 28.12 16.8512 27.4298 17.1566C26.7396 17.4598 26.3134 18.1295 26.3134 18.9055L26.3134 21.6001L16.6145 22.9735C15.1297 23.1703 14 24.4871 14 26.0369C14 26.1703 14.0089 26.3061 14.0244 26.4396C14.2397 27.8378 15.3095 28.917 16.6256 29.0867L26.3134 30.4962L26.3134 33.0732C26.3134 33.8583 26.7662 34.5574 27.4653 34.8538C28.1689 35.1502 28.9479 34.9895 29.4961 34.4307L36.4651 27.3265C36.8091 26.9735 37 26.4984 37 25.9893C37 25.4803 36.8091 25.0052 36.4651 24.6522Z" fill="white"/>
</svg>
