<?xml version="1.0" encoding="UTF-8"?><svg width="440" height="106" id="Layer_2" xmlns="http://www.w3.org/2000/svg" viewBox="0 0 438.83 105.89"><g id="Layer_1-2"><g><rect width="438.83" height="105.89" fill="#fff"/><g><g><path d="M195.73,41.33c.68-.68,1.6-1.07,2.56-1.07h2.13s58.07-.18,58.07-.18c2,0,3.63,1.61,3.64,3.62l.11,36.29c0,2-1.61,3.63-3.62,3.64l-58.07,.17h-2.13c-.96,0-1.88,.39-2.56,1.08l-5.12,5.15c-.68,.68-1.6,1.07-2.56,1.07l-11.51,.03c-.96,0-1.89-.38-2.57-1.05l-5.15-5.12c-.68-.68-1.61-1.06-2.57-1.06h-2.13s-7.26,.03-7.26,.03c-2,0-3.63-1.61-3.64-3.62l-.11-36.29c0-2,1.61-3.63,3.62-3.64l7.26-.02h2.13c.96,0,1.89,.37,2.57,1.05l5.15,5.12c.68,.68,1.61,1.06,2.57,1.06l11.51-.03c.96,0,1.88-.39,2.56-1.07l5.12-5.15Z" fill="#f57f20" fill-rule="evenodd"/><rect x="199.61" y="49.69" width="53.26" height="25.88" rx="4.04" ry="4.04" transform="translate(-.37 1.34) rotate(-.34)" fill="none" stroke="#d15500" stroke-miterlimit="10" stroke-width="1.65"/><polygon points="239.51 57.88 246.79 57.84 243.18 63 239.57 68.16 235.9 63.04 232.23 57.93 239.51 57.88" fill="#ffe5cc" fill-rule="evenodd"/></g><rect x="268.12" y="12.24" width="61.55" height="40.1" rx="20.05" ry="20.05" transform="translate(11.62 -56.34) rotate(10.98)" fill="#f57f20"/><rect x="331.26" y="48.54" width="61.55" height="40.1" rx="20.05" ry="20.05" transform="translate(-6.4 63.35) rotate(-9.91)" fill="#f57f20"/><g><g><g><rect x="69.15" y="38.95" width="9.5" height="70.16" transform="translate(37.67 172.15) rotate(-114.78)" fill="#2b8eb8"/><g><path d="M92.32,71.16l-1.59-3.48-2.53-5.55c-.76-1.67-2.73-2.4-4.39-1.64l-47.77,21.76c-1.67,.76-2.4,2.73-1.64,4.39l3.53,7.75,.59,1.29c.76,1.67,2.73,2.4,4.39,1.64l47.77-21.76c1.67-.76,2.4-2.73,1.64-4.39Z" fill="#f47f20"/><path d="M92.32,71.16s-1.59-3.48-1.59-3.48c-3.66,4.54-8.65,6.79-13.74,9.39-7.79,3.99-15.65,7.83-23.47,11.73-4.63,2.31-9.67,5.03-14.89,5.56-.22,.02-.45,.03-.7,.02l.59,1.29c.76,1.67,2.73,2.4,4.39,1.64l47.77-21.76c1.67-.76,2.4-2.73,1.64-4.39Z" fill="#d96f27"/></g></g><path d="M104.39,58.93c7.82,16.95,27.9,24.34,44.85,16.52,16.95-7.82,24.34-27.9,16.52-44.85-7.82-16.95-27.9-24.34-44.85-16.52-16.95,7.82-24.34,27.9-16.52,44.85Zm18.78-39.96c14.25-6.58,31.12-.36,37.7,13.89,6.58,14.25,.36,31.12-13.89,37.7-14.25,6.58-31.12,.36-37.7-13.89-6.58-14.25-.36-31.12,13.89-37.7Z" fill="#2b8eb8"/></g><circle cx="135.07" cy="44.77" r="28.41" transform="translate(3.41 98.74) rotate(-40.63)" fill="#2b8eb8" opacity=".2"/></g></g></g></g></svg>