<svg width="21" height="19" viewBox="0 0 21 19" fill="none" xmlns="http://www.w3.org/2000/svg">
<path d="M20.2446 10.4434H17.5276C17.4929 9.40049 17.3217 8.40297 17.0364 7.48022C17.541 7.18606 18.0099 6.79912 18.4153 6.33674C19.2142 5.42511 19.7733 5.12098 19.8686 3.75343C19.8963 3.34512 19.582 2.992 19.1664 2.96463C18.7509 2.93748 18.3915 3.24632 18.3636 3.65485C18.2919 4.68419 17.8736 4.6866 17.2762 5.36837C17.0362 5.64206 16.769 5.87859 16.4855 6.07106C15.8525 4.75313 14.9651 4.56492 13.9116 3.81017C13.6822 3.09168 13.2954 2.46287 12.8002 1.98135C12.8457 1.92194 12.8942 1.86387 12.9458 1.80735C13.3099 1.4095 13.8222 1.09865 14.4329 0.979611C14.7055 0.927321 14.8835 0.667651 14.8303 0.399748C14.7771 0.131845 14.5128 -0.0430477 14.2402 0.00924225C13.4019 0.172565 12.6985 0.599785 12.1983 1.14627C12.1276 1.22348 12.0608 1.30336 11.9983 1.38525C11.5189 1.12268 10.984 0.975605 10.4195 0.975605C9.85495 0.975605 9.32007 1.12246 8.84068 1.38525C8.77818 1.30336 8.71137 1.22348 8.64072 1.14627C8.14026 0.599785 7.4369 0.172787 6.5988 0.00946476C6.32616 -0.0428252 6.06189 0.132068 6.00867 0.399971C5.95545 0.667873 6.13345 0.927543 6.40609 0.979833C7.01683 1.09888 7.52907 1.40972 7.8932 1.80757C7.94483 1.86409 7.99329 1.92217 8.03881 1.98158C7.50823 2.49758 7.10221 3.18224 6.88074 3.96548C5.91764 4.712 5.10468 4.84236 4.51386 6.07351C4.22899 5.88059 3.96041 5.6434 3.71947 5.36837C3.12209 4.68682 2.70383 4.68441 2.63205 3.65485C2.60442 3.24655 2.24504 2.93748 1.82928 2.96463C1.41374 2.99177 1.0992 3.3449 1.12682 3.75343C1.22216 5.12098 1.78127 5.42511 2.58019 6.33674C2.98645 6.80023 3.45701 7.18807 3.96291 7.48267C3.67803 8.40475 3.50706 9.40138 3.47241 10.4434H0.755443C0.338319 10.4434 0 10.7758 0 11.1857C0 11.5956 0.338319 11.928 0.755443 11.928H3.51634C3.59945 12.8209 3.7831 13.674 4.05235 14.4679C3.55122 14.7617 3.08518 15.1466 2.68232 15.6063C1.8834 16.5179 1.32429 16.8221 1.22895 18.1896C1.20133 18.5979 1.51564 18.951 1.93141 18.9784C2.34695 19.0056 2.70632 18.6967 2.73418 18.2884C2.80596 17.2591 3.22422 17.2567 3.8216 16.5749C4.06934 16.2923 4.34606 16.0495 4.63977 15.8537C5.9002 18.2956 8.05421 19 10.5001 19C12.946 19 14.9345 18.4166 16.2115 16.131C16.3697 16.2652 16.5208 16.4136 16.6623 16.5749C17.2597 17.2567 17.678 17.2589 17.7497 18.2884C17.7774 18.6967 18.1367 19.0058 18.5525 18.9784C18.9681 18.9513 19.2826 18.5981 19.2547 18.1896C19.1594 16.8221 18.6003 16.5179 17.8014 15.6063C17.5133 15.2777 17.1929 14.9873 16.8505 14.7412C17.173 13.8712 17.3908 12.9246 17.4837 11.9282H20.2446C20.6617 11.9282 21 11.5958 21 11.1859C21 10.776 20.6617 10.4434 20.2446 10.4434ZM11.1636 17.0753C10.9193 17.2887 10.6367 17.3955 10.3162 17.3955C9.99581 17.3955 9.69553 17.29 9.44847 17.0793C9.20119 16.8686 9.07777 16.5738 9.07777 16.1946C9.07777 15.8584 9.19711 15.5756 9.43624 15.346C9.67515 15.1166 9.96863 15.0017 10.3162 15.0017C10.6638 15.0017 10.9462 15.1166 11.1799 15.346C11.4134 15.5756 11.5302 15.8584 11.5302 16.1946C11.5302 16.5682 11.408 16.8619 11.1636 17.0753ZM14.2069 9.66171C14.0194 10.0033 13.7968 10.2981 13.5389 10.5464C13.2807 10.7945 12.8178 11.2124 12.1496 11.7994C11.9648 11.9649 11.8167 12.1104 11.7055 12.2357C11.5941 12.3612 11.5112 12.4758 11.4571 12.5799C11.4028 12.6841 11.3606 12.788 11.3307 12.8921C11.3008 12.9963 11.256 13.1792 11.1962 13.4406C11.093 13.9958 10.7698 14.2732 10.2266 14.2732C9.94418 14.2732 9.7064 14.1825 9.51369 14.0011C9.32075 13.8198 9.22451 13.5501 9.22451 13.1925C9.22451 12.7442 9.29494 12.3559 9.43647 12.0277C9.57755 11.6995 9.76505 11.4113 9.99875 11.163C10.2322 10.9149 10.5472 10.6201 10.944 10.2783C11.2916 9.97946 11.5427 9.75383 11.6976 9.60186C11.8525 9.44988 11.9827 9.28033 12.0887 9.09342C12.1947 8.90674 12.2476 8.70381 12.2476 8.48486C12.2476 8.05786 12.086 7.69761 11.7628 7.40412C11.4397 7.11063 11.0225 6.96377 10.5121 6.96377C9.91451 6.96377 9.47451 7.11197 9.19213 7.40813C8.90974 7.70429 8.67061 8.14063 8.47518 8.71716C8.2904 9.32038 7.94008 9.62188 7.42422 9.62188C7.11987 9.62188 6.8633 9.51664 6.65428 9.3057C6.44504 9.09498 6.34065 8.86668 6.34065 8.62125C6.34065 8.35491 6.38684 8.08678 6.4781 7.81688C6.55895 7.71386 6.61307 7.58881 6.62937 7.45063C6.68938 7.32758 6.75868 7.20409 6.83748 7.08015C7.16878 6.5597 7.65226 6.12891 8.28768 5.78714C8.9231 5.44558 9.66473 5.2747 10.5121 5.2747C11.2997 5.2747 11.9949 5.41755 12.598 5.70303C13.2008 5.98851 13.6666 6.37701 13.9954 6.86787C14.324 7.35895 14.4884 7.89253 14.4884 8.46906C14.4884 8.92276 14.3942 9.32016 14.2069 9.66171Z" fill="#0DA57A"/>
</svg>
