<?xml version="1.0" encoding="UTF-8"?><svg width="440" height="106" id="Layer_2" xmlns="http://www.w3.org/2000/svg" viewBox="0 0 438.83 105.89"><g id="Layer_1-2"><g><g><rect width="438.83" height="105.89" fill="#fff"/><g><path d="M162.24,47.71l-.21-34.14S174.33,1.11,199.17,.96c24.83-.15,37.29,12.15,37.29,12.15l42.31-.26c1.74-.01,3.09,1.39,3.1,3.06l.19,30.99c.01,1.74-1.39,3.09-3.06,3.1l-78.25,.48c-.8,0-1.6,.34-2.2,.95l-4.39,4.45c-.6,.61-1.33,.95-2.2,.95l-9.84,.06c-.8,0-1.61-.32-2.21-.92l-4.45-4.39c-.61-.6-1.34-.93-2.21-.92l-8.03,.05c-1.54,.14-2.95-1.25-2.96-2.99Z" fill="#fdbe10"/><path d="M200.18,55.81c.64-.64,1.51-1.01,2.42-1.01h2s54.75-.17,54.75-.17c1.89,0,3.43,1.52,3.43,3.41l.1,34.22c0,1.89-1.52,3.43-3.41,3.43l-54.75,.16h-2c-.91,0-1.78,.37-2.42,1.02l-4.83,4.85c-.64,.64-1.51,1.01-2.42,1.01l-10.85,.03c-.91,0-1.78-.36-2.42-.99l-4.85-4.83c-.64-.64-1.52-1-2.42-1h-2s-6.84,.03-6.84,.03c-1.89,0-3.43-1.52-3.43-3.41l-.1-34.22c0-1.89,1.52-3.43,3.41-3.43l6.84-.02h2c.91,0,1.78,.35,2.42,.99l4.85,4.83c.64,.64,1.51,1,2.42,1l10.85-.03c.91,0,1.78-.36,2.42-1.01l4.83-4.85Z" fill="#ec9d22" fill-rule="evenodd"/></g></g><rect x="35.63" y="18.57" width="108.37" height="45.12" rx="3.82" ry="3.82" fill="#ffe3b3"/><path d="M102.44,55.53s.06,.09,.09,.13c7.95,11.79,19.87,14.35,18.75,8.99-.79-3.77-1.42-7.11-.74-9.12h3.34c7.83,0,14.18-6.33,14.18-14.15s-6.35-14.15-14.18-14.15H56.61c-7.83,0-14.18,6.33-14.18,14.15s6.35,14.15,14.18,14.15h45.83Z" fill="#ffd996" fill-rule="evenodd" stroke="#fff" stroke-miterlimit="10" stroke-width="2"/><rect x="285.61" y="37.62" width="124.61" height="51.88" rx="4.39" ry="4.39" transform="translate(695.83 127.11) rotate(-180)" fill="#ffe3b3"/><path d="M333.39,80.11s-.07,.1-.1,.15c-9.15,13.55-22.85,16.5-21.56,10.34,.91-4.34,1.64-8.17,.85-10.49h-3.84c-9,0-16.3-7.28-16.3-16.27,0-8.99,7.3-16.27,16.3-16.27h77.36c9,0,16.3,7.28,16.3,16.27s-7.3,16.27-16.3,16.27h-52.7Z" fill="#ffd996" fill-rule="evenodd" stroke="#fff" stroke-miterlimit="10" stroke-width="2.3"/></g></g></svg>