<?xml version="1.0" encoding="UTF-8"?><svg width="440" height="106" id="Layer_2" xmlns="http://www.w3.org/2000/svg" xmlns:xlink="http://www.w3.org/1999/xlink" viewBox="0 0 438.83 105.89"><defs><mask id="mask" x="334.45" y="6.62" width="50.92" height="51.23" maskUnits="userSpaceOnUse"/><mask id="mask-1" x="337.15" y="15.22" width="14.07" height="9.58" maskUnits="userSpaceOnUse"/></defs><g id="Layer_1-2"><g><rect width="438.83" height="105.89" fill="#fff"/><g><path d="M103.77,43.32c.45-.46,1.07-.73,1.71-.73l1.42-.02,38.92-.47c1.34-.02,2.45,1.06,2.46,2.4l.29,24.32c.02,1.34-1.06,2.45-2.4,2.46l-38.92,.47-1.42,.02c-.65,0-1.26,.27-1.71,.73l-3.4,3.48c-.45,.46-1.07,.73-1.71,.73l-7.71,.09c-.65,0-1.27-.24-1.73-.69l-3.48-3.4c-.46-.45-1.08-.7-1.73-.69l-1.42,.02-4.86,.06c-1.34,.02-2.45-1.06-2.46-2.4l-.29-24.32c-.02-1.34,1.06-2.45,2.4-2.46l4.86-.06,1.42-.02c.65,0,1.27,.24,1.73,.69l3.48,3.4c.46,.45,1.08,.7,1.73,.69l7.71-.09c.64,0,1.26-.27,1.71-.73l3.4-3.48Z" fill="#faa91e" fill-rule="evenodd"/><g><path d="M169.39,15.12c-.46-.14-.92-.28-1.37-.4" fill="none" stroke="#ffe2b2" stroke-linecap="round" stroke-miterlimit="10" stroke-width="2.85"/><path d="M162.6,13.45c-28.19-5.16-40.73,15.77-44.74,24.75" fill="none" stroke="#ffe2b2" stroke-dasharray="0 0 2.78 5.56" stroke-linecap="round" stroke-miterlimit="10" stroke-width="2.85"/><path d="M116.81,40.76c-.32,.85-.47,1.34-.47,1.34" fill="none" stroke="#ffe2b2" stroke-linecap="round" stroke-miterlimit="10" stroke-width="2.85"/><path d="M168.95,14.99c-1.51,.75-2.79,2.81-3.36,4.35,2.25-1.57,4.87-2.71,7.65-2.92-2.11-1.79-3.4-4.36-4.37-6.92-.42,1.71-.69,3.86,.08,5.49Z" fill="#ffe2b2"/></g><path d="M35.53,47.06c7.77-2.87,9.38-10.4,11.44-13.29,3.62-5.07,8.89,4.24,1.39,13.09-4.29,5.06,1.78,7.2,6.38,7.3,6.05,.13,16.59,1.08,21.41,1.48,5.45,.45,4.58,7.52-.28,7.25-5.09-.28-14.86-.51-18.02-.78-.51-.04-1.21-.03-1.23,.39-.03,.63,.76,.62,1.91,.73,6.43,.61,5.32,8.73-.98,7.64-.52-.09-1.95-.45-2.11-.09-.2,.43,.04,.75,.57,.87,5.78,1.29,4.27,7.81-1.18,6.53-.85-.2-1.33-.25-1.46,.16-.11,.35-.03,.56,.83,.84,3.59,1.17,1.68,6.74-2.44,5.54-7.26-2.1-13.42-2.74-18.24-4.44-11.37-4.03-12.51-27.87,2.01-33.22Z" fill="#d59d7a" fill-rule="evenodd"/><path d="M184.91,25.46c.39-.51,.97-.85,1.61-.94l1.41-.19,67.48-9.2c1.33-.18,2.56,.75,2.74,2.08l3.29,24.1c.18,1.33-.75,2.56-2.08,2.74l-67.48,9.2-1.41,.19c-.64,.09-1.22,.42-1.61,.94l-2.94,3.87c-.39,.51-.97,.85-1.61,.94l-7.64,1.04c-.64,.09-1.29-.08-1.8-.47l-3.87-2.94c-.51-.39-1.16-.56-1.8-.47l-1.41,.19-4.82,.66c-1.33,.18-2.56-.75-2.74-2.08l-3.29-24.1c-.18-1.33,.75-2.56,2.08-2.74l4.82-.66,1.41-.19c.64-.09,1.29,.08,1.8,.47l3.87,2.94c.51,.39,1.16,.56,1.8,.47l7.64-1.04c.64-.09,1.22-.42,1.61-.94l2.94-3.87Z" fill="#23b689" fill-rule="evenodd"/><path d="M189.86,66.5c.45-.46,1.07-.73,1.71-.73l1.42-.02,38.92-.47c1.34-.02,2.45,1.06,2.46,2.4l.29,24.32c.02,1.34-1.06,2.45-2.4,2.46l-38.92,.47-1.42,.02c-.65,0-1.26,.27-1.71,.73l-3.4,3.48c-.45,.46-1.07,.73-1.71,.73l-7.71,.09c-.65,0-1.27-.24-1.73-.69l-3.48-3.4c-.46-.45-1.08-.7-1.73-.69l-1.42,.02-4.86,.06c-1.34,.02-2.45-1.06-2.46-2.4l-.29-24.32c-.02-1.34,1.06-2.45,2.4-2.46l4.86-.06,1.42-.02c.65,0,1.27,.24,1.73,.69l3.48,3.4c.46,.45,1.08,.7,1.73,.69l7.71-.09c.64,0,1.26-.27,1.71-.73l3.4-3.48Z" fill="#7e69ad" fill-rule="evenodd"/><g><g mask="url(#mask)"><g><path d="M336.2,34.65c-4.79-7.7,1.46-8.07,4.13-5.99,4,3.12,4.96,7.65,6.83,8.58,3.66,1.8,7.51-4.23,6.67-7.28-.98-3.6-3.04-7.66-4.33-8.29-1.72-.85-3.91,.9-7.1,2.7-2.77,1.57-7.26-1.09-3.51-3.84,5.19-3.81,10.12-6.12,12.44-5.24,1.83,.7,3.65,2.15,5.45,5.13,2.31,3.84,3.02,5.77,3.62,6.13,1.36,.81,2.63-7.85,2.8-15.94,.12-5.61,6.33-5.29,6.11,.8-.41,11.46-3.86,19.96-2.92,20.3,.65,.24,4.24-5.6,6.83-15.1,1.17-4.29,7.28-2.96,5.27,2.88-2.66,7.74-7.17,15.9-6.15,16.66,.71,.53,5.45-6.71,7.61-9.59,3.4-4.52,6.97-.45,4.67,2.7-8.99,12.32-10.1,12.74-13.24,20.78-4.45,11.4-25.07,10.03-28.46-2.42-2.33-8.54-4.16-8.85-6.74-12.99Z" fill="#cb855a"/><path d="M337.51,32.92c-4.79-7.7,1.46-8.07,4.13-5.99,4,3.12,4.96,7.65,6.83,8.58,3.66,1.8,6.41-3.19,5.58-6.24-.98-3.6-2.4-7.71-3.68-8.34-1.72-.85-3.46-.09-6.64,1.71-2.77,1.57-7.26-1.09-3.51-3.84,5.19-3.81,10.12-6.12,12.44-5.24,1.83,.7,3.65,2.15,5.45,5.13,2.31,3.84,1.7,4.06,2.31,4.42,1.36,.81,.37-7.52,1.12-15.62,.16-1.68,6.11-3.7,5.9,2.39-.13,3.53-1.24,6.62-1.7,9.46-1.03,6.37-1.49,10.93,.65,12.5,2.1-3.73,4.02-8.75,5.75-15.08,1.17-4.29,6.87-3.52,5.58,.51-1.3,4.04-2.94,5.53-4.29,9.24-1.25,3.45-2.56,8.51-1.02,9.61,3.11-4.69,5.38-7.99,6.83-9.91,3.4-4.52,6.57-.89,4.27,2.27-8.99,12.32-12.39,11.35-15.53,19.39-4.45,11.4-22.04,10.01-25.43-2.45-2.33-8.54-2.42-8.36-4.99-12.5Z" fill="#d59d7a" fill-rule="evenodd"/></g></g><path d="M261.44,27.67l1.23-22.43c.07-1.24,1.14-2.19,2.39-2.12l5.86,.32c.6,.03,1.16,.3,1.57,.74l3.03,3.35c.4,.44,.96,.71,1.57,.74l7.18,.39c.6,.03,1.19-.17,1.64-.57l3.38-3c.45-.4,1.04-.6,1.64-.57l56.55,3.1c1.25,.07,2.21,1.13,2.14,2.37l-1.23,22.43c-.07,1.24-1.14,2.19-2.39,2.12l-56.55-3.1c-.6-.03-1.19,.17-1.64,.57l-3.38,3c-.45,.4-1.04,.6-1.64,.57l-7.18-.39c-.6-.03-1.16-.3-1.57-.75l-3.03-3.35c-.4-.44-.97-.71-1.57-.74l-5.86-.32c-1.25-.07-2.21-1.13-2.14-2.37Z" fill="#628ec9" fill-rule="evenodd"/><g mask="url(#mask-1)"><g><g opacity=".1"><path d="M349.52,21.68c-1.73-.86-4.23,.92-7.41,2.67-2.76,1.52-7.28-1.14-3.55-3.81,5.16-3.71,10.32-6.02,12.65-5.13l-1.7,6.28Z"/></g><path d="M349.97,20.78c-2.09-.65-5.52,2.52-8.69,4.27-2.76,1.52-7.62-2.04-3.89-4.71,5.16-3.71,12.8-7.52,15.13-6.63l-2.54,7.07Z" fill="#d59d7a" fill-rule="evenodd"/></g></g></g><g><path d="M259.62,61.69c.5,.08,.99,.16,1.48,.23" fill="none" stroke="#cedff2" stroke-linecap="round" stroke-miterlimit="10" stroke-width="2.99"/><path d="M266.88,62.46c29.95,1.37,40-22.09,42.89-31.96" fill="none" stroke="#cedff2" stroke-dasharray="0 0 2.91 5.82" stroke-linecap="round" stroke-miterlimit="10" stroke-width="2.99"/><path d="M310.51,27.69c.21-.93,.3-1.46,.3-1.46" fill="none" stroke="#cedff2" stroke-linecap="round" stroke-miterlimit="10" stroke-width="2.99"/><path d="M260.09,61.75c1.46-.99,2.5-3.31,2.87-4.98-2.11,1.94-4.66,3.5-7.52,4.11,2.44,1.56,4.14,4.04,5.5,6.56,.2-1.83,.17-4.1-.85-5.68Z" fill="#cedff2"/></g></g></g></g></svg>