<?xml version="1.0" encoding="UTF-8"?><svg width="440" height="106" id="Layer_2" xmlns="http://www.w3.org/2000/svg" viewBox="0 0 438.83 105.89"><g id="Layer_1-2"><g><rect width="438.83" height="105.89" fill="#fff"/><g><path d="M240.35,3.12c.47-.48,1.12-.75,1.79-.76h1.49s71.25-.59,71.25-.59c1.41-.01,2.55,1.12,2.57,2.52l.21,25.45c.01,1.41-1.12,2.55-2.52,2.57l-71.25,.58h-1.49c-.67,.02-1.32,.29-1.79,.77l-3.57,3.63c-.47,.48-1.12,.75-1.79,.76l-8.07,.07c-.67,0-1.32-.26-1.81-.73l-3.63-3.57c-.48-.47-1.13-.74-1.81-.73h-1.49s-5.09,.05-5.09,.05c-1.41,.01-2.55-1.12-2.57-2.52l-.21-25.44c-.01-1.41,1.12-2.55,2.52-2.57l5.09-.04h1.49c.67-.02,1.32,.25,1.81,.72l3.63,3.57c.48,.47,1.13,.74,1.81,.73l8.07-.07c.67,0,1.32-.28,1.79-.76l3.57-3.63Z" fill="#23b689" fill-rule="evenodd"/><path d="M240.47,70.34c.47-.48,1.12-.76,1.79-.76h1.49s40.71-.38,40.71-.38c1.4-.01,2.55,1.12,2.57,2.52l.23,25.44c.01,1.41-1.12,2.56-2.52,2.57l-40.71,.36h-1.49c-.67,.02-1.32,.29-1.79,.77l-3.57,3.63c-.47,.48-1.12,.76-1.79,.76l-8.07,.07c-.67,0-1.32-.26-1.81-.73l-3.63-3.57c-.48-.47-1.13-.74-1.81-.73h-1.49s-5.09,.06-5.09,.06c-1.41,.01-2.55-1.12-2.57-2.52l-.23-25.44c-.01-1.41,1.12-2.55,2.52-2.57l5.09-.05h1.49c.67-.02,1.32,.24,1.81,.72l3.63,3.57c.48,.47,1.13,.74,1.81,.73l8.07-.07c.67,0,1.32-.28,1.79-.76l3.57-3.63Z" fill="#7e69ad" fill-rule="evenodd"/><path d="M111.84,45.08c.41-.54,1.02-.89,1.69-.98l1.48-.2,40.36-5.37c1.39-.19,2.67,.79,2.86,2.19l3.36,25.22c.19,1.39-.79,2.67-2.19,2.86l-40.36,5.37-1.48,.2c-.67,.09-1.28,.44-1.69,.98l-3.09,4.04c-.41,.54-1.02,.89-1.69,.98l-8,1.06c-.67,.09-1.35-.09-1.88-.5l-4.04-3.09c-.54-.41-1.21-.59-1.88-.5l-1.48,.2-5.04,.67c-1.39,.19-2.67-.79-2.86-2.19l-3.36-25.22c-.19-1.39,.79-2.67,2.19-2.86l5.04-.67,1.48-.2c.67-.09,1.35,.09,1.88,.5l4.04,3.09c.54,.41,1.21,.59,1.88,.5l8-1.07c.67-.09,1.28-.44,1.69-.98l3.09-4.04Z" fill="#faa91e" fill-rule="evenodd"/><path d="M240.79,36.24c.47-.48,1.12-.76,1.79-.77l1.49-.02,40.71-.49c1.4-.02,2.56,1.11,2.58,2.51l.31,25.44c.02,1.41-1.11,2.56-2.51,2.58l-40.71,.49-1.49,.02c-.67,0-1.32,.28-1.79,.77l-3.55,3.64c-.47,.48-1.12,.76-1.79,.77l-8.07,.1c-.67,0-1.33-.25-1.81-.72l-3.64-3.55c-.48-.47-1.13-.73-1.81-.72l-1.49,.02-5.09,.06c-1.41,.02-2.56-1.11-2.58-2.51l-.31-25.44c-.02-1.41,1.11-2.56,2.51-2.58l5.09-.06,1.49-.02c.67,0,1.33,.25,1.81,.72l3.64,3.55c.48,.47,1.13,.73,1.81,.72l8.07-.1c.67,0,1.32-.28,1.79-.77l3.55-3.64Z" fill="none" fill-rule="evenodd" stroke="#faa91e" stroke-dasharray="0 0 2.09 4.18" stroke-linecap="round" stroke-miterlimit="10" stroke-width="2.09"/><g><path d="M207.37,46.46c-.42-.27-.84-.54-1.26-.8" fill="none" stroke="#ffe2b2" stroke-linecap="round" stroke-miterlimit="10" stroke-width="2.99"/><path d="M201.03,42.82c-26.85-13.34-45.51,4.07-52.14,11.93" fill="none" stroke="#ffe2b2" stroke-dasharray="0 0 2.91 5.82" stroke-linecap="round" stroke-miterlimit="10" stroke-width="2.99"/><path d="M147.09,57.03c-.57,.77-.86,1.22-.86,1.22" fill="none" stroke="#ffe2b2" stroke-linecap="round" stroke-miterlimit="10" stroke-width="2.99"/><path d="M206.96,46.21c-1.74,.32-3.62,2.02-4.63,3.4,2.71-.93,5.68-1.32,8.53-.72-1.61-2.41-2.16-5.37-2.39-8.23-.92,1.59-1.81,3.68-1.51,5.55Z" fill="#ffe2b2"/></g><g><path d="M46.26,36.01l-.14-1.55c-.11-.94,.59-1.78,1.53-1.89,8.79-.86,16.67,5.57,17.53,14.37l.5,4.92c-9.77,1.04-18.44-6.11-19.41-15.84Z" fill="#35a87e"/><path d="M62.91,88.57l.77,1.34c.49,.85,1.51,1.11,2.36,.62,7.67-4.38,10.37-14.14,6.04-21.82l-2.45-4.34c-8.58,4.83-11.53,15.66-6.72,24.19Z" fill="#35a87e"/><path d="M34.58,85.33l.06,.27c.3,1,1.43,1.47,2.33,.97,4.83-2.51,7.37-8.22,5.62-13.63l-.65-2c-5.99,1.94-9.31,8.4-7.37,14.38Z" fill="#35a87e"/><path d="M24.69,55.38l-.12-.25c-.5-.9-.03-2.03,.9-2.37,5.18-1.75,11.02,.42,13.74,5.37l1.01,1.85c-5.61,3.04-12.56,.97-15.53-4.6Z" fill="#35a87e"/><path d="M71.47,62.35l-3.16-9.88,8.16-2.57c2.73-.88,5.64,.63,6.52,3.36,.88,2.73-.63,5.64-3.36,6.52l-8.16,2.57Z" fill="#35a87e"/><path d="M77.8,55.05c-3.75-11.82-17.45-18.03-30.61-13.86-13.16,4.17-20.78,17.13-17.04,28.96,3.75,11.82,17.45,18.03,30.61,13.86,13.16-4.17,20.78-17.13,17.04-28.96Z" fill="#dbdcdd"/><path d="M59.54,80.15c-.47,.17-.95,.28-1.38,.39-5.98,1.49-11.95,.43-16.5-2.5-.8-.49-1.5-1.06-2.21-1.68-2.29-2-4.04-4.58-4.98-7.58-.94-3-1.01-6.1-.3-9.04,.18-.89,.48-1.76,.84-2.63,2.03-5.01,6.3-9.38,12.05-11.6,.47-.17,.88-.32,1.35-.49,.52-.18,1.06-.31,1.59-.44,5.94-1.42,11.91-.36,16.47,2.62,.74,.5,1.43,1.02,2.13,1.58,2.29,2,3.97,4.54,4.98,7.58,.94,3,1.01,6.1,.3,9.04-.2,.84-.44,1.69-.81,2.52-1.96,5.05-6.25,9.36-11.93,11.63-.62,.26-1.09,.43-1.61,.61Z" fill="#3db789"/><path d="M46.63,58.34l2.42-2.67c1.26-1.38,3.1-1.93,4.89-1.57l3.53,.8c1.8,.42,3.24,1.71,3.84,3.5l1.1,3.42c.53,1.74,.15,3.7-1.12,5.02l-2.42,2.67c-1.26,1.38-3.1,1.93-4.89,1.57l-3.53-.8c-1.8-.42-3.24-1.71-3.84-3.5l-1.1-3.42c-.53-1.74-.1-3.71,1.12-5.02Z" fill="#2d9a73"/><path d="M61.04,79.56l-1.16-3.68c-.5-1.63-.14-3.42,1.03-4.66l2.74-2.98c1.17-1.24,2.9-1.83,4.58-1.44l3.94,.87c.29,.04,.6,.14,.86,.3-2.03,5.01-6.32,9.32-12,11.59Z" fill="#2d9a73"/><path d="M73.79,65.42c-.49,.06-.96,0-1.49-.1l-3.94-.87c-1.68-.39-3.04-1.59-3.55-3.23l-1.2-3.84c-.5-1.63-.14-3.42,1.03-4.66l2.69-2.96c.36-.37,.74-.69,1.13-.95,2.29,2,3.97,4.54,4.98,7.58,1,2.99,1.06,6.08,.35,9.03Z" fill="#2d9a73"/><path d="M58.61,52.36l-3.94-.87c-1.68-.39-3.04-1.59-3.55-3.23l-1.16-3.68c5.94-1.42,11.91-.36,16.47,2.62-.16,.27-.33,.53-.55,.76l-2.74,2.98c-1.12,1.23-2.86,1.76-4.53,1.42Z" fill="#2d9a73"/><path d="M39.87,58.26l-3.94-.87c-.36-.08-.67-.18-.98-.33,2.03-5.01,6.3-9.37,12.05-11.6l1.16,3.68c.5,1.63,.14,3.42-1.03,4.66l-2.69,2.96c-1.15,1.35-2.89,1.88-4.57,1.49Z" fill="#2d9a73"/><path d="M39.38,76.31c-2.29-2-4.04-4.58-4.98-7.58-.94-3-1.01-6.1-.3-9.04,.55-.07,1.12-.04,1.65,.06l3.94,.87c1.68,.39,3.04,1.59,3.55,3.23l1.2,3.84c.5,1.63,.14,3.42-1.03,4.66l-2.69,2.96c-.4,.44-.84,.77-1.35,1Z" fill="#2d9a73"/><path d="M58.1,80.49c-5.98,1.49-11.95,.43-16.5-2.5,.15-.32,.37-.6,.64-.89l2.74-2.98c1.17-1.24,2.9-1.83,4.58-1.44l3.94,.87c1.68,.39,3.04,1.59,3.55,3.23l1.06,3.71Z" fill="#2d9a73"/></g></g></g></g></svg>