<?xml version="1.0" encoding="UTF-8"?>
<svg width="440" height="106" viewBox="0 0 329.6 90.18" id="Layer_2" data-name="Layer 2" xmlns="http://www.w3.org/2000/svg">
  <defs>
    <style>
      .cls-1 {
        fill: #fff;
      }

      .cls-2 {
        fill: #cf8b17;
      }

      .cls-3, .cls-4, .cls-5 {
        fill: none;
      }

      .cls-6 {
        fill: #ffab19;
      }

      .cls-7 {
        fill: #ffe5cc;
      }

      .cls-8 {
        fill: #ec9d22;
      }

      .cls-8, .cls-9, .cls-10 {
        fill-rule: evenodd;
      }

      .cls-4 {
        stroke: #ede4f1;
        stroke-width: 2.96px;
      }

      .cls-4, .cls-5 {
        stroke-linecap: round;
        stroke-miterlimit: 10;
      }

      .cls-9 {
        fill: #7e69ad;
      }

      .cls-5 {
        stroke: #ffe5cc;
        stroke-width: 2.8px;
      }

      .cls-10 {
        fill: #00a87d;
      }

      .cls-11 {
        fill: #ede4f1;
      }
    </style>
  </defs>
  <g id="Layer_1-2" data-name="Layer 1">
    <rect class="cls-3" width="329.6" height="90.18"/>
    <path class="cls-8" d="M38.57,29.88c.45-.44,1.05-.68,1.67-.67l1.38.02,37.69.44c1.3.01,2.34,1.08,2.33,2.38l-.27,23.56c0,1.3-1.08,2.34-2.38,2.33l-37.69-.44-1.38-.02c-.62,0-1.23.23-1.67.67l-3.37,3.29c-.45.44-1.05.68-1.67.67l-7.47-.09c-.62,0-1.22-.26-1.66-.71l-3.29-3.37c-.44-.45-1.03-.7-1.66-.71l-1.38-.02-4.71-.05c-1.3-.01-2.34-1.08-2.33-2.38l.27-23.56c.02-1.3,1.08-2.34,2.38-2.33l4.71.05,1.38.02c.62,0,1.22.26,1.66.71l3.29,3.37c.44.45,1.03.7,1.66.71l7.47.09c.62,0,1.23-.23,1.67-.67l3.37-3.29Z"/>
    <path class="cls-1" d="M66.15,32.49l-10.92-.26c-5.63-.13-10.31,4.32-10.44,9.96h0c-.13,5.64,4.32,10.32,9.96,10.45l10.92.26c5.63.13,10.31-4.32,10.44-9.96h0c.13-5.64-4.32-10.32-9.96-10.45Z"/>
    <path class="cls-6" d="M234.12,64.48l-.07-.58h0s-1.28-10.44-1.28-10.44h-.02s-.36-2.89-.36-2.89c-.15-1.28-1.32-2.2-2.6-2.04l-54.54,6.67-.2.02c-.62.07-1.18.39-1.56.88l-2.88,3.68c-.38.49-.94.8-1.56.88l-7.36.9c-.61.07-1.23-.1-1.72-.48l-3.68-2.88c-.48-.38-1.1-.56-1.72-.48l-3.58.44-1.84.22c-1.28.15-2.44-.76-2.6-2.04h0s-1.52-12.45-1.52-12.45h0s-.28-2.33-.28-2.33c-.15-1.28.76-2.44,2.04-2.6l5.42-.66c.61-.07,1.23.1,1.72.48l3.68,2.88c.48.38,1.1.56,1.72.48l7.36-.9c.62-.07,1.18-.39,1.56-.88l2.88-3.68c.38-.49.94-.8,1.56-.88l.2-.02,54.54-6.67c1.28-.15,2.2-1.32,2.04-2.6l-.07-.58h0s-1.67-13.67-1.67-13.67h.01s-.43-3.48-.43-3.48c-.16-1.28-1.32-2.19-2.6-2.04l-63.82,7.8-.2.02c-.62.08-1.18.39-1.56.88l-2.88,3.68c-.38.49-.94.81-1.56.88l-7.36.9c-.62.08-1.24-.1-1.72-.48l-3.68-2.88c-.49-.38-1.11-.55-1.72-.48l-6,.73-.03.02c-1.28.16-2.19,1.32-2.04,2.6l.4,3.2,1.77,14.53h.01s.85,6.96.85,6.96h0s1.49,12.16,1.49,12.16h-.02s.35,2.9.35,2.9h.02s.67,5.51.67,5.51h0s.01,0,.01,0l1.28,10.43c.15,1.28,1.32,2.2,2.6,2.04l90.52-11.07c1.28-.15,2.2-1.32,2.04-2.6Z"/>
    <polygon class="cls-2" points=".46 26.85 .46 26.83 .46 26.83 .46 26.85"/>
    <path class="cls-6" d="M91.14,1.11L29.02.35h-.19c-.6,0-1.18.22-1.61.64l-3.23,3.15c-.43.42-1.01.65-1.61.64l-7.16-.09c-.6,0-1.17-.25-1.59-.68l-3.15-3.23c-.42-.43-.99-.67-1.59-.68L3.05.03C1.8.01.78,1.01.76,2.26l-.04,3.39h0s-.17,13.29-.17,13.29v.57s0,0,0,0l-.09,6.77h0s-.15,37.63-.15,37.63h0l-.03,2.82h0s-.06,4.8-.06,4.8h0s-.12,10.17-.12,10.17h0s0,.55,0,.55c0,0,0,0,0,0h0s0,0,0,0c-.01,1.25.98,2.26,2.23,2.28l88.08,1.09c1.24.02,2.27-.98,2.29-2.23l.13-10.73h0s.03-2.8.03-2.8c.02-1.25-.98-2.27-2.23-2.29l-53.07-.66h-.19c-.6-.01-1.18.22-1.61.64l-3.23,3.15c-.43.42-1.01.64-1.61.64l-7.16-.09c-.6-.01-1.17-.25-1.59-.68l-3.15-3.23c-.42-.43-.99-.68-1.59-.68l-3.48-.04-1.79-.02c-1.25-.02-2.25-1.04-2.22-2.29v-1.13h-.02s.14-36.24.14-36.24h0l.03-2.82c.02-1.25,1.04-2.25,2.29-2.23l5.28.07c.6.01,1.17.25,1.59.68l3.15,3.23c.42.43.99.68,1.59.68l7.16.09c.6,0,1.18-.22,1.61-.64l3.23-3.15c.43-.42,1.01-.64,1.61-.64h.19l53.07.66c1.24.02,2.27-.98,2.29-2.23h0s0-.02,0-.02v-1.11s.17-12.73.17-12.73h0s.04-3.39.04-3.39c.02-1.25-.98-2.27-2.23-2.29Z"/>
    <path class="cls-9" d="M276.48,12.71c.48-.46,1.13-.72,1.79-.71l1.47.03,40.28.73c1.39.02,2.5,1.17,2.47,2.56l-.45,25.18c-.02,1.39-1.17,2.5-2.56,2.47l-40.28-.73-1.47-.03c-.67,0-1.31.24-1.79.71l-3.62,3.5c-.48.46-1.13.72-1.79.71l-7.98-.14c-.67-.01-1.3-.29-1.77-.77l-3.5-3.62c-.46-.48-1.1-.76-1.77-.77l-1.47-.03-5.04-.09c-1.39-.02-2.5-1.17-2.47-2.56l.45-25.18c.03-1.39,1.17-2.5,2.56-2.47l5.04.09,1.47.03c.67,0,1.3.29,1.77.77l3.5,3.62c.46.48,1.1.76,1.77.77l7.98.14c.67.01,1.31-.24,1.79-.7l3.62-3.5h0Z"/>
    <path class="cls-4" d="M260.08,37c-.35-.35-.7-.7-1.05-1.04"/>
    <path class="cls-4" d="M254.53,31.79c-40.62-35.4-77.79-8.97-88.83.6"/>
    <path class="cls-4" d="M163.43,34.44c-.69.66-1.05,1.04-1.05,1.04"/>
    <path class="cls-11" d="M259.75,36.74c-1.53,0-3.42,1.13-4.51,2.15,2.46-.35,5.06-.2,7.39.77-.98-2.32-.96-4.93-.69-7.4-1.04,1.21-2.14,2.85-2.2,4.48h0Z"/>
    <path class="cls-5" d="M57.39,45.1c.4-.25.8-.49,1.2-.72"/>
    <path class="cls-5" d="M63.64,41.56c45.15-23.44,73.36,9.08,81.37,20.32"/>
    <path class="cls-5" d="M146.64,64.26c.49.76.73,1.19.73,1.19"/>
    <path class="cls-7" d="M57.75,44.94c.33-1.41-.31-3.39-1.02-4.6-.2,2.34-.89,4.7-2.29,6.64,2.34-.41,4.74.16,6.96.94-.89-1.22-2.16-2.58-3.66-2.97h.01Z"/>
    <path class="cls-10" d="M276.25,52.11c.47-.51,1.12-.81,1.82-.84l1.53-.06,46.36-1.92c1.44-.06,2.66,1.06,2.72,2.5l.92,22.86c.06,1.44-1.06,2.66-2.51,2.72l-46.36,1.92-1.53.06c-.69.03-1.35.33-1.82.84l-3.54,3.85c-.47.51-1.12.81-1.82.84l-8.28.34c-.69.03-1.37-.22-1.88-.69l-3.84-3.54c-.51-.47-1.19-.72-1.88-.69l-1.53.06-5.22.22c-1.44.06-2.66-1.06-2.72-2.5l-.92-22.86c-.06-1.44,1.06-2.66,2.51-2.72l5.22-.22,1.53-.06c.69-.03,1.37.22,1.88.69l3.84,3.54c.51.47,1.19.72,1.88.69l8.28-.34c.69-.03,1.35-.33,1.82-.84l3.54-3.85Z"/>
  </g>
</svg>