<?xml version="1.0" encoding="UTF-8"?><svg width="440" height="106" id="Layer_2" xmlns="http://www.w3.org/2000/svg" viewBox="0 0 438.83 105.89"><g id="Layer_1-2"><g><rect width="438.83" height="105.89" fill="#fff"/><g><path d="M327.62,87.96c-.04,.06-.09,.12-.13,.19-11.56,17.13-28.88,20.84-27.25,13.07,1.15-5.48,2.07-10.33,1.07-13.26h-4.86c-11.38,0-20.6-9.21-20.6-20.56s9.22-20.56,20.6-20.56h97.76c11.38,0,20.6,9.2,20.6,20.56s-9.22,20.56-20.6,20.56h-66.6Z" fill="#7e69ad" fill-rule="evenodd" opacity=".7"/><path d="M123.28,48.62c-.99,2.93-.07,7.78,1.07,13.26,1.63,7.77-15.69,4.06-27.25-13.07-.04-.06-.09-.13-.13-.19H30.37c-11.38,0-20.6-9.2-20.6-20.56S19,7.5,30.37,7.5h97.76c11.38,0,20.6,9.2,20.6,20.56s-9.22,20.56-20.6,20.56h-4.86Z" fill="#23b689" fill-rule="evenodd" opacity=".7"/><path d="M189.85,18.22c.5-.65,1.23-1.07,2.04-1.18l1.79-.24,85.49-11.45c1.69-.23,3.24,.96,3.46,2.64l4.09,30.53c.23,1.69-.96,3.24-2.64,3.46l-85.49,11.45-1.79,.24c-.81,.11-1.54,.53-2.04,1.18l-3.74,4.9c-.5,.65-1.23,1.07-2.04,1.18l-9.68,1.3c-.81,.11-1.63-.11-2.28-.61l-4.9-3.74c-.65-.5-1.47-.71-2.28-.6l-1.79,.24-6.11,.82c-1.69,.23-3.24-.96-3.46-2.64l-4.09-30.53c-.23-1.69,.96-3.24,2.64-3.46l6.11-.82,1.79-.24c.81-.11,1.63,.11,2.28,.61l4.9,3.74c.65,.5,1.47,.71,2.28,.61l9.68-1.3c.81-.11,1.54-.53,2.04-1.18l3.74-4.9Z" fill="#23b689" fill-rule="evenodd"/><path d="M195.32,58.34c.49-.65,1.23-1.08,2.04-1.19l1.79-.25,48.83-6.7c1.68-.23,3.24,.95,3.47,2.63l4.19,30.52c.23,1.69-.95,3.24-2.63,3.47l-48.83,6.7-1.79,.24c-.81,.11-1.54,.54-2.04,1.19l-3.72,4.91c-.49,.65-1.23,1.08-2.04,1.19l-9.68,1.33c-.81,.11-1.63-.1-2.28-.6l-4.91-3.72c-.65-.49-1.47-.71-2.28-.6l-1.79,.25-6.1,.84c-1.69,.23-3.24-.95-3.47-2.63l-4.19-30.52c-.23-1.69,.95-3.24,2.63-3.47l6.1-.84,1.79-.24c.81-.11,1.63,.1,2.28,.6l4.91,3.72c.65,.49,1.47,.71,2.28,.6l9.68-1.33c.81-.11,1.54-.54,2.04-1.19l3.72-4.91Z" fill="#7e69ad" fill-rule="evenodd"/><path d="M12.24,27.1c7.12,0,7.12-7.86,8.9-7.86s1.79,4.71,3.57,4.71,1.78-12.57,3.56-12.57,1.78,9.42,3.56,9.42,1.78-6.28,3.57-6.28,1.78,9.43,5.34,9.43c1.78,0,1.78-3.15,3.56-3.15,.42,0,.74,.35,1.06,.88,1.49,2.51,5.22,2.15,6.09-.63,.54-1.72,.94-3.15,1.58-3.15,1.65,0,1.65,4.59,3.3,4.59,3.3,0,3.3-13.79,4.95-13.79s1.65,9.2,3.3,9.2,1.65-13.79,3.3-13.79,1.65,18.38,3.3,18.38,1.65-6.89,3.3-6.89,1.65,11.49,8.26,11.49c-6.61,0-6.61,11.49-8.26,11.49s-1.65-6.89-3.3-6.89-1.65,18.38-3.3,18.38-1.65-13.79-3.3-13.79-1.65,9.19-3.3,9.19-1.65-13.78-4.95-13.78c-1.65,0-1.65,4.59-3.3,4.59-.65,0-1.04-1.42-1.58-3.15-.87-2.78-4.6-3.14-6.09-.64-.31,.53-.64,.88-1.06,.88-1.78,0-1.78-3.14-3.56-3.14-3.56,0-3.56,9.43-5.34,9.43s-1.79-6.29-3.57-6.29-1.78,9.43-3.56,9.43-1.78-12.57-3.56-12.57-1.78,4.71-3.57,4.71-1.78-7.86-8.9-7.86Z" fill="#078e69" fill-rule="evenodd"/><path d="M74.36,27.1c7.12,0,7.12-7.86,8.9-7.86s1.79,4.71,3.57,4.71,1.78-12.57,3.56-12.57,1.78,9.42,3.56,9.42,1.78-6.28,3.57-6.28,1.78,9.43,5.34,9.43c1.78,0,1.78-3.15,3.56-3.15,.42,0,.74,.35,1.06,.88,1.49,2.51,5.22,2.15,6.09-.63,.54-1.72,.94-3.15,1.58-3.15,1.65,0,1.65,4.59,3.3,4.59,3.3,0,3.3-13.79,4.95-13.79s1.65,9.2,3.3,9.2,1.65-13.79,3.3-13.79,1.65,18.38,3.3,18.38,1.65-6.89,3.3-6.89,1.65,11.49,8.26,11.49c-6.61,0-6.61,11.49-8.26,11.49s-1.65-6.89-3.3-6.89-1.65,18.38-3.3,18.38-1.65-13.79-3.3-13.79-1.65,9.19-3.3,9.19-1.65-13.78-4.95-13.78c-1.65,0-1.65,4.59-3.3,4.59-.65,0-1.04-1.42-1.58-3.15-.87-2.78-4.6-3.14-6.09-.64-.31,.53-.64,.88-1.06,.88-1.78,0-1.78-3.14-3.56-3.14-3.56,0-3.56,9.43-5.34,9.43s-1.79-6.29-3.57-6.29-1.78,9.43-3.56,9.43-1.78-12.57-3.56-12.57-1.78,4.71-3.57,4.71-1.78-7.86-8.9-7.86Z" fill="#078e69" fill-rule="evenodd"/><path d="M407.25,67.72c-6.84,0-6.84,7.55-8.55,7.55s-1.72-4.53-3.43-4.53-1.71,12.08-3.42,12.08-1.71-9.05-3.42-9.05-1.71,6.04-3.43,6.04-1.71-9.06-5.13-9.06c-1.71,0-1.71,3.02-3.42,3.02-.4,0-.71-.33-1.01-.84-1.43-2.41-5.01-2.07-5.85,.61-.52,1.66-.9,3.02-1.52,3.02-1.59,0-1.59-4.41-3.17-4.41-3.17,0-3.17,13.25-4.76,13.25s-1.59-8.83-3.17-8.83-1.59,13.25-3.17,13.25-1.59-17.66-3.17-17.66-1.59,6.62-3.17,6.62-1.59-11.04-7.93-11.04c6.35,0,6.35-11.04,7.93-11.04s1.58,6.62,3.17,6.62,1.59-17.66,3.17-17.66,1.59,13.25,3.17,13.25,1.59-8.83,3.17-8.83,1.59,13.24,4.76,13.24c1.58,0,1.58-4.41,3.17-4.41,.62,0,1,1.37,1.52,3.03,.84,2.67,4.42,3.02,5.85,.61,.3-.51,.61-.84,1.01-.84,1.71,0,1.71,3.02,3.42,3.02,3.42,0,3.42-9.06,5.13-9.06s1.72,6.04,3.43,6.04,1.71-9.06,3.42-9.06,1.71,12.08,3.42,12.08,1.71-4.53,3.43-4.53,1.71,7.55,8.55,7.55Z" fill="#6f57a4" fill-rule="evenodd"/><path d="M351.91,67.72c-6.84,0-6.84,7.55-8.55,7.55s-1.72-4.53-3.43-4.53-1.71,12.08-3.42,12.08-1.71-9.05-3.42-9.05-1.71,6.04-3.43,6.04-1.71-9.06-5.13-9.06c-1.71,0-1.71,3.02-3.42,3.02-.4,0-.71-.33-1.01-.84-1.43-2.41-5.01-2.07-5.85,.61-.52,1.66-.9,3.02-1.52,3.02-1.59,0-1.59-4.41-3.17-4.41-3.17,0-3.17,13.25-4.76,13.25s-1.59-8.83-3.17-8.83-1.59,13.25-3.17,13.25-1.59-17.66-3.17-17.66-1.59,6.62-3.17,6.62-1.59-11.04-7.93-11.04c6.35,0,6.35-11.04,7.93-11.04s1.58,6.62,3.17,6.62,1.59-17.66,3.17-17.66,1.59,13.25,3.17,13.25,1.59-8.83,3.17-8.83,1.59,13.24,4.76,13.24c1.58,0,1.58-4.41,3.17-4.41,.62,0,1,1.37,1.52,3.03,.84,2.67,4.42,3.02,5.85,.61,.3-.51,.61-.84,1.01-.84,1.71,0,1.71,3.02,3.42,3.02,3.42,0,3.42-9.06,5.13-9.06s1.72,6.04,3.43,6.04,1.71-9.06,3.42-9.06,1.71,12.08,3.42,12.08,1.71-4.53,3.43-4.53,1.71,7.55,8.55,7.55Z" fill="#6f57a4" fill-rule="evenodd"/></g></g></g></svg>