<svg width="440" height="106" viewBox="0 0 440 106" fill="none" xmlns="http://www.w3.org/2000/svg">
<g clip-path="url(#clip0_1997_8712)">
<path d="M439.83 0H1V105.89H439.83V0Z" fill="white"/>
<path fill-rule="evenodd" clip-rule="evenodd" d="M49.3799 61.84L53.7899 22.23C54.0299 20.04 56.0199 18.47 58.2299 18.71L68.5699 19.86C69.6299 19.98 70.5999 20.51 71.2699 21.33L76.2999 27.56C76.9699 28.39 77.9399 28.92 78.9999 29.03L91.6799 30.44C92.7399 30.56 93.7999 30.25 94.6399 29.59L100.92 24.62C101.75 23.96 102.82 23.66 103.88 23.77L203.71 34.88C205.92 35.13 207.51 37.1 207.27 39.29L202.86 78.9C202.62 81.09 200.63 82.66 198.42 82.42L98.5899 71.31C97.5299 71.19 96.4699 71.5 95.6299 72.16L89.3499 77.13C88.5199 77.79 87.4499 78.09 86.3899 77.98L73.7099 76.57C72.6499 76.45 71.6799 75.92 71.0099 75.09L65.9799 68.86C65.3099 68.03 64.3399 67.5 63.2799 67.39L52.9399 66.24C50.7299 65.99 49.1399 64.02 49.3799 61.83V61.84Z" fill="#4C7DBF"/>
<path d="M336 19.16C335.46 18.27 329.67 18.25 328.68 18.2C326.52 18.1 322.64 17.7 320.73 18.68C320.73 18.77 316.47 21.04 316.47 21.04L323.32 28.93L334.23 29.83L339.15 22.77C339.15 22.77 336.43 19.86 336 19.17V19.16Z" fill="#95897F"/>
<path d="M356.14 58.21C351.51 61.27 345.72 65.1 341.07 68.11C337.41 70.49 335.53 73.25 332.32 76.22C332.32 76.22 339.91 87.45 340.08 87.69C351.47 84.85 358.43 75.58 362.65 65.02L356.13 58.21H356.14Z" fill="#95897F"/>
<path d="M304.57 57.4899L295.81 68.1299C298.56 74.0799 301.91 79.8099 307.49 83.4499C309.15 84.5399 312.91 86.9299 314.89 86.6599C316.16 86.4999 320.17 84.2599 320.17 84.2599C320.17 84.2599 321.19 78.7099 321.33 76.6399L322.01 67.1499C321.62 66.8899 304.9 57.1399 304.58 57.4799L304.57 57.4899Z" fill="#95897F"/>
<path d="M318.4 21.7999C318.4 21.7999 314.05 20.5199 313.28 20.8699C310.95 21.9799 306.16 24.7899 304.22 26.4999C300.25 29.9999 296.7 34.7999 295.29 39.9899C295.46 40.0599 296.09 43.9199 296.23 43.9699C296.27 44.0799 305.94 47.6899 305.94 47.6899C307.95 46.4099 316.34 40.7499 316.34 40.7499L321.54 26.6199L318.4 21.7999Z" fill="#C7BA99"/>
<path d="M335.19 80.2799L328.41 72.4199C325.13 72.8999 319.89 79.2899 319.01 80.2699C317.36 82.3099 315.9 84.5099 314.65 86.8199C315.98 88.0999 319.29 88.7499 321.05 89.1399C323.32 89.6399 325.63 89.8899 327.95 89.8999C332.08 89.8299 336.18 89.0799 340.08 87.6999L335.2 80.2799H335.19Z" fill="#DBCFB9"/>
<path d="M355.67 44.9099C355.19 45.3199 342.59 32.7099 342.12 33.1099C341.65 33.5199 325.73 42.0599 325.9 42.7799C325.9 42.9099 326.47 62.1599 326.47 62.2899C326.47 63.1999 341.07 68.1199 341.07 68.1199L353.61 59.9599C353.61 59.9599 356.07 44.5599 355.67 44.8999V44.9099Z" fill="#C7BA99"/>
<path d="M326.29 47.73L323.32 38.39L315.18 36.76C315 36.9 302.17 45.35 301.97 45.49V58.34C306.34 62.97 315.01 67.33 315.01 67.33C315.01 67.33 322.77 63.68 322.7 63.93C322.95 63.4 326.4 59.43 326.4 59.43L326.29 47.72V47.73Z" fill="#DBCFB9"/>
<path d="M319.03 80.2599C319.03 80.2599 315.43 69.6599 314.94 67.3199C318.04 63.9699 326.38 59.3699 326.38 59.3699C331.21 62.1999 336.55 64.7799 341.05 68.1199C339.84 72.3499 337.08 76.3299 335.17 80.2899C332.04 81.0899 321.15 80.2099 319.03 80.2699V80.2599Z" fill="black"/>
<path d="M360.26 36.7699C357.79 31.6299 346.44 22.6399 345.41 22.3599H345.58C344.9 22.0299 342.05 20.5499 341.26 20.7599C340.74 20.2499 337.82 21.1099 337.27 21.4899C336 22.3999 332.94 26.9899 332.94 26.9899L332.05 31.8999L338.48 36.6899C338.48 36.6899 348.37 42.2999 352.55 44.3999L360.72 37.7499C360.68 37.6199 360.29 36.8599 360.25 36.7699H360.26Z" fill="#DBCFB9"/>
<path d="M332.95 27.0199C332.95 27.0199 321.66 26.5199 321.56 26.6699L315.23 36.7399C315.5 37.1599 316.67 38.2099 316.99 38.5899C317.67 39.3999 318.36 40.2299 319.1 40.9899C319.84 41.7499 325.79 47.4599 326.34 47.7299C326.5 47.6599 326.64 47.5799 326.78 47.4899C327.36 46.9899 338.54 36.9099 338.54 36.9099L332.94 27.0299L332.95 27.0199Z" fill="black"/>
<path d="M362.65 65.0199C359.4 63.7999 356.36 62.0899 353.61 59.9499C353.55 59.0499 352.03 44.2899 352.03 43.9799C353.35 42.7699 359.5 37.6999 360.74 37.7499C364.04 45.5099 366.49 57.0199 362.65 65.0199Z" fill="black"/>
<path d="M303.29 44.54C303.07 44.28 296.72 40.76 295.28 40.04C292.27 49.1 291.71 59.26 295.81 68.15L295.96 68.21L303.93 60.19C303.9 60.02 303.39 44.64 303.29 44.53V44.54Z" fill="black"/>
<path d="M318.78 19.0801C318.47 19.2101 318.15 19.3201 317.82 19.4001C317.33 19.5401 316.84 19.6601 316.35 19.8201C315.6 20.0601 314.86 20.3101 314.12 20.5601C313.83 20.6601 313.55 20.7701 313.26 20.8801V21.0401C313.63 21.1101 313.99 21.1901 314.36 21.2401C315.06 21.3401 317.66 21.7001 318.36 21.8101L320.81 18.6001C320.12 18.6901 319.44 18.8501 318.78 19.0901V19.0801Z" fill="black"/>
<path d="M336.75 21.9199C336.75 21.9199 336.26 20.0799 335.98 19.1599C337.69 19.5599 339.38 20.0499 341.04 20.6399V20.7899C340.91 20.8599 336.74 21.9199 336.74 21.9199H336.75Z" fill="black"/>
<path d="M298.79 51.5302C298.35 51.0802 297.91 50.6502 297.46 50.2102" stroke="#CEDFF2" stroke-width="3.74" stroke-miterlimit="10" stroke-linecap="round"/>
<path d="M291.79 44.9601C240.53 0.280098 193.62 33.6201 179.67 45.7001" stroke="#CEDFF2" stroke-width="3.74" stroke-miterlimit="10" stroke-linecap="round"/>
<path d="M176.8 48.3C175.93 49.13 175.47 49.6101 175.47 49.6101" stroke="#CEDFF2" stroke-width="3.74" stroke-miterlimit="10" stroke-linecap="round"/>
<path d="M298.37 51.2101C296.44 51.2001 294.06 52.6401 292.68 53.9201C295.79 53.4801 299.06 53.6701 302.01 54.9001C300.78 51.9701 300.79 48.6801 301.13 45.5601C299.82 47.0901 298.43 49.1501 298.36 51.2201L298.37 51.2101Z" fill="#CEDFF2"/>
<path d="M254.393 88.7785L258.83 84.0007L223.568 51.2568L219.132 56.0345L254.393 88.7785Z" fill="#2B8EB8"/>
<path d="M232.35 59.0699L230.55 60.9899L227.69 64.0399C226.83 64.9599 226.88 66.3999 227.79 67.2499L254.05 91.8799C254.97 92.7399 256.41 92.6899 257.26 91.7799L261.26 87.5199L261.93 86.8099C262.79 85.8899 262.74 84.4499 261.83 83.5999L235.57 58.9699C234.65 58.1099 233.21 58.1599 232.36 59.0699H232.35Z" fill="#F47F20"/>
<path d="M232.35 59.0699L230.55 60.9899C234.38 62.1299 237.11 64.7099 240.09 67.2599C244.65 71.1599 249.14 75.1499 253.65 79.0899C256.32 81.4299 259.36 83.9199 261.06 87.0899C261.13 87.2199 261.19 87.3699 261.25 87.5299L261.92 86.8199C262.78 85.8999 262.73 84.4599 261.82 83.6099L235.56 58.9799C234.64 58.1199 233.2 58.1699 232.35 59.0799V59.0699Z" fill="#D96F27"/>
<path d="M221.45 54.6099C230.16 45.2299 229.62 30.5599 220.24 21.8499C210.86 13.1399 196.19 13.6799 187.48 23.0599C178.77 32.4399 179.31 47.1099 188.69 55.8199C198.07 64.5299 212.74 63.9899 221.45 54.6099ZM191.2 53.1099C183.31 45.7899 182.86 33.4599 190.18 25.5699C197.5 17.6799 209.83 17.2299 217.72 24.5499C225.61 31.8699 226.06 44.1999 218.74 52.0899C211.42 59.9799 199.09 60.4299 191.2 53.1099Z" fill="#2B8EB8"/>
<path opacity="0.2" d="M221.813 47.6881C226.705 38.0999 222.898 26.3615 213.31 21.4697C203.721 16.5779 191.983 20.3851 187.091 29.9734C182.199 39.5616 186.007 51.3001 195.595 56.1918C205.183 61.0836 216.922 57.2764 221.813 47.6881Z" fill="#2B8EB8"/>
</g>
<defs>
<clipPath id="clip0_1997_8712">
<rect width="438.83" height="105.89" fill="white" transform="translate(1)"/>
</clipPath>
</defs>
</svg>
