<?xml version="1.0" encoding="UTF-8"?><svg width="440" height="106" id="Layer_2" xmlns="http://www.w3.org/2000/svg" xmlns:xlink="http://www.w3.org/1999/xlink" viewBox="0 0 438.83 105.89"><defs><mask id="mask" x="327.39" y="5.71" width="50.92" height="51.23" maskUnits="userSpaceOnUse"/><mask id="mask-1" x="330.09" y="14.3" width="14.07" height="9.58" maskUnits="userSpaceOnUse"/></defs><g id="Layer_1-2"><g><rect width="438.83" height="105.89" fill="#fff"/><g><path d="M281.99,38.67c.45-.46,1.07-.72,1.71-.73h1.42s68.1-.62,68.1-.62c1.34-.01,2.44,1.07,2.45,2.41l.22,24.32c.01,1.34-1.07,2.44-2.41,2.45l-68.1,.61h-1.42c-.65,.02-1.26,.28-1.71,.74l-3.41,3.47c-.45,.46-1.07,.72-1.71,.73l-7.71,.07c-.65,0-1.27-.24-1.73-.7l-3.47-3.41c-.46-.45-1.08-.7-1.73-.7h-1.42s-4.86,.06-4.86,.06c-1.34,.01-2.44-1.07-2.45-2.41l-.22-24.32c-.01-1.34,1.07-2.44,2.41-2.45l4.86-.04h1.42c.65-.02,1.27,.23,1.73,.68l3.47,3.41c.46,.45,1.08,.7,1.73,.7l7.71-.07c.65,0,1.26-.27,1.71-.73l3.41-3.47Z" fill="#23b689" fill-rule="evenodd"/><path d="M282.35,67.08c.45-.46,1.07-.73,1.71-.73l1.42-.02,38.92-.47c1.34-.02,2.45,1.06,2.46,2.4l.29,24.32c.02,1.34-1.06,2.45-2.4,2.46l-38.92,.47-1.42,.02c-.65,0-1.26,.27-1.71,.73l-3.4,3.48c-.45,.46-1.07,.73-1.71,.73l-7.71,.09c-.65,0-1.27-.24-1.73-.69l-3.48-3.4c-.46-.45-1.08-.7-1.73-.69l-1.42,.02-4.86,.06c-1.34,.02-2.45-1.06-2.46-2.4l-.29-24.32c-.02-1.34,1.06-2.45,2.4-2.46l4.86-.06,1.42-.02c.65,0,1.27,.24,1.73,.69l3.48,3.4c.46,.45,1.08,.7,1.73,.69l7.71-.09c.64,0,1.26-.27,1.71-.73l3.4-3.48Z" fill="#7e69ad" fill-rule="evenodd"/><path d="M157.75,39.24c.45-.46,1.07-.72,1.71-.73h1.42s68.1-.62,68.1-.62c1.34-.01,2.44,1.07,2.45,2.41l.22,24.32c.01,1.34-1.07,2.44-2.41,2.45l-68.1,.61h-1.42c-.65,.02-1.26,.28-1.71,.74l-3.41,3.47c-.45,.46-1.07,.72-1.71,.73l-7.71,.07c-.65,0-1.27-.24-1.73-.7l-3.47-3.41c-.46-.45-1.08-.7-1.73-.7h-1.42s-4.86,.06-4.86,.06c-1.34,.01-2.44-1.07-2.45-2.41l-.22-24.32c-.01-1.34,1.07-2.44,2.41-2.45l4.86-.04h1.42c.65-.02,1.27,.23,1.73,.68l3.47,3.41c.46,.45,1.08,.7,1.73,.7l7.71-.07c.65,0,1.26-.27,1.71-.73l3.41-3.47Z" fill="#23b689" fill-rule="evenodd"/><path d="M158.11,67.64c.45-.46,1.07-.73,1.71-.73l1.42-.02,38.92-.47c1.34-.02,2.45,1.06,2.46,2.4l.29,24.32c.02,1.34-1.06,2.45-2.4,2.46l-38.92,.47-1.42,.02c-.65,0-1.26,.27-1.71,.73l-3.4,3.48c-.45,.46-1.07,.73-1.71,.73l-7.71,.09c-.65,0-1.27-.24-1.73-.69l-3.48-3.4c-.46-.45-1.08-.7-1.73-.69l-1.42,.02-4.86,.06c-1.34,.02-2.45-1.06-2.46-2.4l-.29-24.32c-.02-1.34,1.06-2.45,2.4-2.46l4.86-.06,1.42-.02c.65,0,1.27,.24,1.73,.69l3.48,3.4c.46,.45,1.08,.7,1.73,.69l7.71-.09c.64,0,1.26-.27,1.71-.73l3.4-3.48Z" fill="#7e69ad" fill-rule="evenodd"/><g><g mask="url(#mask)"><g><path d="M329.14,33.73c-4.79-7.7,1.46-8.07,4.13-5.99,4,3.12,4.96,7.65,6.83,8.58,3.66,1.8,7.51-4.23,6.67-7.28-.98-3.6-3.04-7.66-4.33-8.29-1.72-.85-3.91,.9-7.1,2.7-2.77,1.57-7.26-1.09-3.51-3.84,5.19-3.81,10.12-6.12,12.44-5.24,1.83,.7,3.65,2.15,5.45,5.13,2.31,3.84,3.02,5.77,3.62,6.13,1.36,.81,2.63-7.85,2.8-15.94,.12-5.61,6.33-5.29,6.11,.8-.41,11.46-3.86,19.96-2.92,20.3,.65,.24,4.24-5.6,6.83-15.1,1.17-4.29,7.28-2.96,5.27,2.88-2.66,7.74-7.17,15.9-6.15,16.66,.71,.53,5.45-6.71,7.61-9.59,3.4-4.52,6.97-.45,4.67,2.7-8.99,12.32-10.1,12.74-13.24,20.78-4.45,11.4-25.07,10.03-28.46-2.42-2.33-8.54-4.16-8.85-6.74-12.99Z" fill="#d59d7a"/><path d="M330.45,32.01c-4.79-7.7,1.46-8.07,4.13-5.99,4,3.12,4.96,7.65,6.83,8.58,3.66,1.8,6.41-3.19,5.58-6.24-.98-3.6-2.4-7.71-3.68-8.34-1.72-.85-3.46-.09-6.64,1.71-2.77,1.57-7.26-1.09-3.51-3.84,5.19-3.81,10.12-6.12,12.44-5.24,1.83,.7,3.65,2.15,5.45,5.13,2.31,3.84,1.7,4.06,2.31,4.42,1.36,.81,.37-7.52,1.12-15.62,.16-1.68,6.11-3.7,5.9,2.39-.13,3.53-1.24,6.62-1.7,9.46-1.03,6.37-1.49,10.93,.65,12.5,2.1-3.73,4.02-8.75,5.75-15.08,1.17-4.29,6.87-3.52,5.58,.51-1.3,4.04-2.94,5.53-4.29,9.24-1.25,3.45-2.56,8.51-1.02,9.61,3.11-4.69,5.38-7.99,6.83-9.91,3.4-4.52,6.57-.89,4.27,2.27-8.99,12.32-12.39,11.35-15.53,19.39-4.45,11.4-22.04,10.01-25.43-2.45-2.33-8.54-2.42-8.36-4.99-12.5Z" fill="#ecc297" fill-rule="evenodd"/></g></g><path d="M254.38,26.76l1.23-22.43c.07-1.24,1.14-2.19,2.39-2.12l5.86,.32c.6,.03,1.16,.3,1.57,.74l3.03,3.35c.4,.44,.96,.71,1.57,.74l7.18,.39c.6,.03,1.19-.17,1.64-.57l3.38-3c.45-.4,1.04-.6,1.64-.57l56.55,3.1c1.25,.07,2.21,1.13,2.14,2.37l-1.23,22.43c-.07,1.24-1.14,2.19-2.39,2.12l-56.55-3.1c-.6-.03-1.19,.17-1.64,.57l-3.38,3c-.45,.4-1.04,.6-1.64,.57l-7.18-.39c-.6-.03-1.16-.3-1.57-.75l-3.03-3.35c-.4-.44-.97-.71-1.57-.74l-5.86-.32c-1.25-.07-2.21-1.13-2.14-2.37Z" fill="#f04f6b" fill-rule="evenodd"/><g mask="url(#mask-1)"><g><g opacity=".1"><path d="M342.46,20.77c-1.73-.86-4.23,.92-7.41,2.67-2.76,1.52-7.28-1.14-3.55-3.81,5.16-3.71,10.32-6.02,12.65-5.13l-1.7,6.28Z"/></g><path d="M342.91,19.87c-2.09-.65-5.52,2.52-8.69,4.27-2.76,1.52-7.62-2.04-3.89-4.71,5.16-3.71,12.8-7.52,15.13-6.63l-2.54,7.07Z" fill="#ecc297" fill-rule="evenodd"/></g></g></g><g><path d="M85.83,51.03c3.89-7.07,5.59-6.91,8.75-10.03,5.92-5.78,.45-7.43-2.34-6.19-4.21,1.87-6.03,5.7-7.88,6.1-3.6,.79-5.74-5.39-4.34-7.87,1.67-2.97,4.34-6.11,5.63-6.37,1.7-.38,3.26,1.62,5.7,3.92,2.1,2.01,6.63,.63,3.94-2.61-3.78-4.48-7.63-7.63-9.85-7.36-1.78,.24-3.7,1.1-5.92,3.38-2.86,2.88-3.93,4.47-4.54,4.62-1.35,.42-.6-7.51,.97-14.68,1.09-4.99-4.43-6.04-5.55-.61-2.15,10.22-.93,18.51-1.8,18.6-.63,.05-2.53-5.86-2.79-14.85-.13-4.05-5.79-4.2-5.26,1.41,.68,7.44,2.86,15.62,1.81,16.09-.73,.32-3.38-7.1-4.66-10.13-2-4.72-6.05-1.9-4.73,1.37,5.26,12.87,6.14,13.47,7.17,21.25,1.47,11,19.96,14.24,25.68,3.97Z" fill="#875128"/><path d="M90.21,45.75l-4.01-24.37s7.39-10.29,25.11-13.21c17.73-2.92,28.02,4.47,28.02,4.47l30.2-4.97c1.24-.2,2.36,.64,2.56,1.84l3.64,22.12c.2,1.24-.64,2.36-1.84,2.56l-55.85,9.19c-.57,.09-1.11,.43-1.47,.93l-2.63,3.67c-.36,.5-.85,.83-1.47,.93l-7.02,1.16c-.57,.09-1.19-.05-1.69-.41l-3.67-2.63c-.5-.36-1.07-.51-1.69-.41l-5.73,.94c-1.08,.28-2.25-.56-2.46-1.8Z" fill="#fdbe10"/><path d="M85.64,26.62c1.7-.38,3.26,1.62,5.7,3.92,2.1,2.01,6.63,.63,3.94-2.61-3.78-4.48-7.63-7.63-9.85-7.36" fill="#875128"/><g opacity=".1"><path d="M79.6,35.27c-.15-2.13,1.22-6.29,3.37-8.16,2.15-1.87,3.77-3.02,6.91,.24,3.95,4.01,6.17,2.32,6.17,2.32,0,0,.32,1.32-1.68,1.75-4.26,.95-6.51-6.19-9.2-4.62-3.53,2.1-5.57,8.47-5.57,8.47Z"/></g><g opacity=".1"><path d="M53.71,22.26c1.11-.13,1.86,.58,2.76,2.44,.8,1.59,3.31,10.25,5.84,9.84,0,0,.76-.13,0,0,0,0-.41,.51-2.16-3.87-1.75-4.37-2.52-6.99-3.57-7.95-1.04-.96-1.94-1.05-2.87-.46Z"/></g><g opacity=".1"><path d="M62.73,14.1c1.24-.2,1.03,5.08,1.78,9.03,.75,3.95,2.23,8.81,4.03,8.71,0,0-1.34-1.89-2.19-7.64-.85-5.75,.11-8.31-1.47-9.52-1.18-.93-2.16-.58-2.16-.58Z"/></g><g opacity=".1"><path d="M71.54,10.69c1.46-.98,3.49,.02,2.6,3.6-.88,3.58-1.92,12.78,.53,14.24,0,0-.67-2.59,.06-8.01,.81-6.12,1.83-7.96,1.05-9.4-.72-1.4-2.31-2.42-4.24-.43Z"/></g></g><g><path d="M150.14,20.56c.34,.04,.67,.07,.99,.12" fill="none" stroke="#ffe2b2" stroke-linecap="round" stroke-miterlimit="10" stroke-width="2"/><path d="M154.91,21.34c19.11,4.34,21.64,20.99,21.87,27.78" fill="none" stroke="#ffe2b2" stroke-dasharray="0 0 1.92 3.83" stroke-linecap="round" stroke-miterlimit="10" stroke-width="2"/><path d="M176.78,51.02c-.02,.64-.05,.99-.05,.99" fill="none" stroke="#ffe2b2" stroke-linecap="round" stroke-miterlimit="10" stroke-width="2"/><path d="M150.53,20.62c1.12-.96,1.78-2.98,1.93-4.41-1.58,1.81-3.56,3.34-5.88,4.11,2.18,1.07,3.82,2.98,5.18,4.96,0-1.54-.24-3.43-1.23-4.65Z" fill="#ffe2b2"/></g><g><path d="M279.06,15.17c-.24,.24-.47,.47-.7,.71" fill="none" stroke="#fde5ea" stroke-linecap="round" stroke-miterlimit="10" stroke-width="2"/><path d="M275.83,18.76c-12.19,15.35-3.74,29.92,.34,35.35" fill="none" stroke="#fde5ea" stroke-dasharray="0 0 1.92 3.83" stroke-linecap="round" stroke-miterlimit="10" stroke-width="2"/><path d="M277.36,55.61c.41,.49,.66,.74,.66,.74" fill="none" stroke="#fde5ea" stroke-linecap="round" stroke-miterlimit="10" stroke-width="2"/><path d="M278.8,15.47c-.05,1.48,1,3.33,1.95,4.4-.27-2.38-.06-4.88,.94-7.11-2.26,.88-4.78,.8-7.16,.48,1.14,1.04,2.69,2.14,4.26,2.23Z" fill="#fde5ea"/></g></g></g></g></svg>