<?xml version="1.0" encoding="UTF-8"?><svg width="440" height="106" id="Layer_2" xmlns="http://www.w3.org/2000/svg" viewBox="0 0 438.83 105.89"><g id="Layer_1-2"><g><rect width="438.83" height="105.89" fill="#fff"/><g><path d="M249.39,2.41c.47-.48,1.12-.75,1.79-.76h1.49s71.25-.59,71.25-.59c1.41-.01,2.55,1.12,2.57,2.52l.21,25.45c.01,1.41-1.12,2.55-2.52,2.57l-71.25,.58h-1.49c-.67,.02-1.32,.29-1.79,.77l-3.57,3.63c-.47,.48-1.12,.75-1.79,.76l-8.07,.07c-.67,0-1.32-.26-1.81-.73l-3.63-3.57c-.48-.47-1.13-.74-1.81-.73h-1.49s-5.09,.05-5.09,.05c-1.41,.01-2.55-1.12-2.57-2.52l-.21-25.44c-.01-1.41,1.12-2.55,2.52-2.57l5.09-.04h1.49c.67-.02,1.32,.25,1.81,.72l3.63,3.57c.48,.47,1.13,.74,1.81,.73l8.07-.07c.67,0,1.32-.28,1.79-.76l3.57-3.63Z" fill="#23b689" fill-rule="evenodd"/><path d="M249.51,69.63c.47-.48,1.12-.76,1.79-.76h1.49s40.71-.38,40.71-.38c1.4-.01,2.55,1.12,2.57,2.52l.23,25.44c.01,1.41-1.12,2.56-2.52,2.57l-40.71,.36h-1.49c-.67,.02-1.32,.29-1.79,.77l-3.57,3.63c-.47,.48-1.12,.76-1.79,.76l-8.07,.07c-.67,0-1.32-.26-1.81-.73l-3.63-3.57c-.48-.47-1.13-.74-1.81-.73h-1.49s-5.09,.06-5.09,.06c-1.41,.01-2.55-1.12-2.57-2.52l-.23-25.44c-.01-1.41,1.12-2.55,2.52-2.57l5.09-.05h1.49c.67-.02,1.32,.24,1.81,.72l3.63,3.57c.48,.47,1.13,.74,1.81,.73l8.07-.07c.67,0,1.32-.28,1.79-.76l3.57-3.63Z" fill="#7e69ad" fill-rule="evenodd"/><path d="M127.56,53.28c.41-.54,1.02-.89,1.69-.98l1.48-.2,40.36-5.37c1.39-.19,2.67,.79,2.86,2.19l3.36,25.22c.19,1.39-.79,2.67-2.19,2.86l-40.36,5.37-1.48,.2c-.67,.09-1.28,.44-1.69,.98l-3.09,4.04c-.41,.54-1.02,.89-1.69,.98l-8,1.06c-.67,.09-1.35-.09-1.88-.5l-4.04-3.09c-.54-.41-1.21-.59-1.88-.5l-1.48,.2-5.04,.67c-1.39,.19-2.67-.79-2.86-2.19l-3.36-25.22c-.19-1.39,.79-2.67,2.19-2.86l5.04-.67,1.48-.2c.67-.09,1.35,.09,1.88,.5l4.04,3.09c.54,.41,1.21,.59,1.88,.5l8-1.07c.67-.09,1.28-.44,1.69-.98l3.09-4.04Z" fill="#ae5aa2" fill-rule="evenodd"/><path d="M249.83,35.54c.47-.48,1.12-.76,1.79-.77l1.49-.02,40.71-.49c1.4-.02,2.56,1.11,2.58,2.51l.31,25.44c.02,1.41-1.11,2.56-2.51,2.58l-40.71,.49-1.49,.02c-.67,0-1.32,.28-1.79,.77l-3.55,3.64c-.47,.48-1.12,.76-1.79,.77l-8.07,.1c-.67,0-1.33-.25-1.81-.72l-3.64-3.55c-.48-.47-1.13-.73-1.81-.72l-1.49,.02-5.09,.06c-1.41,.02-2.56-1.11-2.58-2.51l-.31-25.44c-.02-1.41,1.11-2.56,2.51-2.58l5.09-.06,1.49-.02c.67,0,1.33,.25,1.81,.72l3.64,3.55c.48,.47,1.13,.73,1.81,.72l8.07-.1c.67,0,1.32-.28,1.79-.77l3.55-3.64Z" fill="none" fill-rule="evenodd" stroke="#ae5aa2" stroke-dasharray="0 0 3 6" stroke-linecap="round" stroke-miterlimit="10" stroke-width="3"/><g><path d="M223.09,54.67c-.42-.27-.84-.54-1.26-.8" fill="none" stroke="#eecde1" stroke-linecap="round" stroke-miterlimit="10" stroke-width="2.99"/><path d="M216.75,51.03c-26.85-13.34-45.51,4.07-52.14,11.93" fill="none" stroke="#eecde1" stroke-dasharray="0 0 2.91 5.82" stroke-linecap="round" stroke-miterlimit="10" stroke-width="2.99"/><path d="M162.81,65.24c-.57,.77-.86,1.22-.86,1.22" fill="none" stroke="#eecde1" stroke-linecap="round" stroke-miterlimit="10" stroke-width="2.99"/><path d="M222.68,54.42c-1.74,.32-3.62,2.02-4.63,3.4,2.71-.93,5.68-1.32,8.53-.72-1.61-2.41-2.16-5.37-2.39-8.23-.92,1.59-1.81,3.68-1.51,5.55Z" fill="#eecde1"/></g></g><g><path d="M67.87,68.94c.98,2.04,3.49,6.15,8.48,8.35,.89,.38,1.76-.43,1.54-1.31-.71-2.5-1.62-6.66-.66-10.04,.26-.71,.79-1.27,1.47-1.52,5.74-1.81,33.57-11.85,28.98-34.62C102.58,4.46,80.31,1.18,60.39,9.88c-20.18,8.81-20.91,23.07-17.94,37.89,3.4,17.17,18.8,19.56,23.47,19.93,.89,.04,1.57,.49,1.95,1.24Z" fill="#5fc8de"/><path d="M66.42,36.73c-3.34-.9-4.17-6.4,.21,13,0,.07,0,.14,.07,.21,.42,2.02-1.53,3.68-4.24,3.68s-5.35-1.67-5.77-3.68c-.42-2.02,1.53-3.68,4.24-3.68,.56,0,1.18,.07,1.74,.21,.28,.07,.56,.14,.83,.28,.76,0-.14-2.09-1.67-10.98-1.95-11.05,2.78-1.67,7.92-2.5,5.07-.76,0,4.31-3.34,3.48Z" fill="#fff"/><path d="M86.17,29.84c-3.34-.9-4.17-6.4,.21,13,0,.07,0,.14,.07,.21,.42,2.02-1.53,3.68-4.24,3.68s-5.35-1.67-5.77-3.68c-.42-2.02,1.53-3.68,4.24-3.68,.56,0,1.18,.07,1.74,.21,.28,.07,.56,.14,.83,.28,.76,0-.14-2.09-1.67-10.98-1.95-11.05,2.78-1.67,7.93-2.43,5.07-.83,0,4.24-3.34,3.41Z" fill="#fff"/></g></g></g></svg>