<?xml version="1.0" encoding="UTF-8"?><svg width="440" height="106" id="Layer_2" xmlns="http://www.w3.org/2000/svg" viewBox="0 0 438.83 105.89"><g id="Layer_1-2"><g><rect width="438.83" height="105.89" fill="#fff"/><g><path d="M65.08,9.93c.53-.63,1.29-1.02,2.11-1.09l1.81-.15,49.52-4.22c1.71-.15,3.21,1.12,3.36,2.83l2.64,30.95c.15,1.71-1.12,3.21-2.83,3.36l-49.52,4.22-1.81,.15c-.82,.07-1.58,.46-2.11,1.09l-4,4.75c-.53,.63-1.29,1.02-2.11,1.09l-9.82,.84c-.82,.07-1.64-.19-2.27-.72l-4.75-4c-.63-.53-1.44-.79-2.27-.72l-1.81,.15-6.19,.53c-1.71,.15-3.21-1.12-3.36-2.83l-2.64-30.95c-.15-1.71,1.12-3.21,2.83-3.36l6.19-.53,1.81-.15c.82-.07,1.64,.19,2.27,.72l4.75,4c.63,.53,1.44,.79,2.27,.72l9.82-.84c.82-.07,1.58-.46,2.11-1.09l4-4.75Z" fill="#ae5aa2" fill-rule="evenodd"/><g><path d="M336.05,61.42c.57-.58,1.35-.92,2.16-.93l1.8-.02,49.16-.6c1.7-.02,3.09,1.34,3.11,3.04l.37,30.72c.02,1.7-1.34,3.09-3.03,3.11l-49.16,.6-1.8,.02c-.81,.01-1.59,.34-2.16,.93l-4.29,4.4c-.57,.58-1.35,.92-2.16,.93l-9.74,.12c-.81,.01-1.6-.3-2.18-.87l-4.4-4.29c-.58-.57-1.37-.88-2.18-.87l-1.8,.02-6.15,.07c-1.7,.02-3.09-1.34-3.11-3.03l-.37-30.73c-.02-1.7,1.34-3.09,3.04-3.11l6.15-.07,1.8-.02c.82-.01,1.6,.3,2.18,.87l4.4,4.29c.58,.57,1.37,.88,2.18,.87l9.74-.12c.81,0,1.59-.34,2.16-.93l4.29-4.4Z" fill="#7e69ad" fill-rule="evenodd"/><rect x="344.54" y="63.96" width="40.86" height="26.62" rx="13.31" ry="13.31" fill="#fff"/></g><g><path d="M272.53,11.35c.63-.52,1.44-.77,2.25-.69l1.79,.17,48.95,4.63c1.69,.16,2.93,1.66,2.77,3.35l-2.89,30.59c-.16,1.69-1.66,2.93-3.35,2.77l-48.95-4.63-1.79-.17c-.81-.08-1.62,.17-2.25,.69l-4.74,3.92c-.63,.52-1.44,.77-2.25,.69l-9.7-.92c-.81-.08-1.56-.47-2.08-1.1l-3.92-4.74c-.52-.63-1.27-1.02-2.08-1.1l-1.79-.17-6.12-.58c-1.69-.16-2.93-1.66-2.77-3.35l2.89-30.59c.16-1.69,1.66-2.93,3.35-2.77l6.12,.58,1.79,.17c.81,.08,1.56,.47,2.08,1.1l3.92,4.74c.52,.63,1.27,1.02,2.08,1.1l9.7,.92c.81,.08,1.62-.17,2.25-.69l4.74-3.92Z" fill="#7e69ad" fill-rule="evenodd"/><rect x="272.68" y="20.22" width="47.17" height="22.92" rx="3.58" ry="3.58" transform="translate(4.33 -27.89) rotate(5.43)" fill="none" stroke="#5e429a" stroke-miterlimit="10" stroke-width="1.46"/><polygon points="308.38 28.68 314.8 29.29 311.16 33.52 307.52 37.74 304.74 32.91 301.97 28.07 308.38 28.68" fill="#c4b2d7" fill-rule="evenodd"/></g><rect x="76.2" y="11.89" width="40.09" height="26.12" rx="13.06" ry="13.06" transform="translate(-1.72 7.98) rotate(-4.7)" fill="#fff"/><g><path d="M141.07,53.45c.58-.58,1.37-.91,2.19-.92h1.82s49.7-.15,49.7-.15c1.71,0,3.11,1.38,3.12,3.1l.09,31.06c0,1.72-1.38,3.11-3.1,3.12l-49.7,.15h-1.82c-.82,0-1.61,.34-2.19,.92l-4.38,4.41c-.58,.58-1.37,.91-2.19,.92l-9.85,.03c-.82,0-1.61-.32-2.2-.9l-4.41-4.38c-.58-.58-1.38-.91-2.2-.9h-1.82s-6.21,.02-6.21,.02c-1.72,0-3.11-1.38-3.12-3.1l-.09-31.06c0-1.72,1.38-3.11,3.1-3.12l6.21-.02h1.82c.82,0,1.61,.32,2.2,.9l4.41,4.38c.58,.58,1.38,.91,2.2,.9l9.85-.03c.82,0,1.61-.33,2.19-.92l4.38-4.41Z" fill="#ae5aa2" fill-rule="evenodd"/><rect x="144.4" y="60.6" width="45.58" height="22.15" rx="3.46" ry="3.46" transform="translate(-.42 .99) rotate(-.34)" fill="none" stroke="#9a338e" stroke-miterlimit="10" stroke-width="1.41"/><polygon points="178.55 67.62 184.77 67.58 181.69 72 178.6 76.41 175.46 72.03 172.32 67.65 178.55 67.62" fill="#eecde2" fill-rule="evenodd"/></g><g><path d="M179.61,46.23c-.08-.5-.17-.99-.27-1.47" fill="none" stroke="#eecde1" stroke-linecap="round" stroke-miterlimit="10" stroke-width="2.99"/><path d="M177.98,39.11c-8.42-28.78-33.87-30.67-44.14-30.2" fill="none" stroke="#eecde1" stroke-dasharray="0 0 2.91 5.82" stroke-linecap="round" stroke-miterlimit="10" stroke-width="2.99"/><path d="M130.94,9.13c-.95,.1-1.48,.19-1.48,.19" fill="none" stroke="#eecde1" stroke-linecap="round" stroke-miterlimit="10" stroke-width="2.99"/><path d="M179.52,45.77c-1.41-1.06-3.94-1.29-5.64-1.09,2.52,1.36,4.82,3.28,6.32,5.78,.68-2.82,2.48-5.23,4.42-7.33-1.79,.41-3.93,1.17-5.1,2.65Z" fill="#eecde1"/></g><g><path d="M241.47,56.34c.1,.49,.21,.98,.32,1.46" fill="none" stroke="#ede4f1" stroke-linecap="round" stroke-miterlimit="10" stroke-width="2.99"/><path d="M243.37,63.39c9.51,28.43,35.01,29.35,45.26,28.49" fill="none" stroke="#ede4f1" stroke-dasharray="0 0 2.91 5.82" stroke-linecap="round" stroke-miterlimit="10" stroke-width="2.99"/><path d="M291.51,91.56c.94-.14,1.47-.25,1.47-.25" fill="none" stroke="#ede4f1" stroke-linecap="round" stroke-miterlimit="10" stroke-width="2.99"/><path d="M241.58,56.8c1.45,1,3.99,1.14,5.68,.88-2.57-1.27-4.95-3.09-6.54-5.53-.57,2.84-2.28,5.32-4.14,7.5,1.78-.48,3.88-1.32,5-2.84Z" fill="#ede4f1"/></g></g></g></g></svg>